<svg id="Layer_1" enable-background="new 0 0 512 512" height="512" viewBox="0 0 512 512" width="512" xmlns="http://www.w3.org/2000/svg"><g><path d="m407.83 512h-303.66c-35.658 0-58.107-38.384-40.597-69.434l132.801-224.243c12.032-20.317 18.38-43.49 18.38-67.097v-126.841h82.494v126.841c0 23.607 6.348 46.78 18.38 67.097l132.801 224.243c17.508 31.05-4.94 69.434-40.599 69.434z" fill="#bdf9ff"/><path d="m448.428 442.566-132.801-224.243c-12.032-20.317-18.38-43.49-18.38-67.097v-126.841h-30.935v126.841c0 23.607 6.348 46.78 18.38 67.097l132.801 224.243c17.509 31.05-4.939 69.434-40.597 69.434h30.935c35.658 0 58.106-38.384 40.597-69.434z" fill="#8cf2ff"/><path d="m104.17 512h303.66c35.658 0 58.107-38.384 40.597-69.434l-102.861-173.689h-179.132l-102.862 173.689c-17.509 31.05 4.939 69.434 40.598 69.434z" fill="#f05656"/><g fill="#e84c4c"><path d="m448.428 442.566-102.862-173.689h-30.935l102.862 173.689c17.509 31.05-4.939 69.434-40.597 69.434h30.935c35.658 0 58.106-38.384 40.597-69.434z"/><circle cx="260.112" cy="264.789" r="21.645"/><circle cx="189.345" cy="358.7" r="26.993"/><circle cx="300.147" cy="439.118" r="28.282"/></g><path d="m301.328 32.966h-90.656c-9.103 0-16.483-7.38-16.483-16.483 0-9.103 7.38-16.483 16.483-16.483h90.656c9.103 0 16.483 7.38 16.483 16.483 0 9.103-7.38 16.483-16.483 16.483z" fill="#8cf2ff"/><path d="m301.328 0h-30c9.103 0 16.483 7.38 16.483 16.483 0 9.103-7.38 16.483-16.483 16.483h30c9.103 0 16.483-7.38 16.483-16.483 0-9.103-7.38-16.483-16.483-16.483z" fill="#63e9ff"/></g></svg>